<?xml version="1.0" encoding="UTF-8"?>
<svg width="1200" height="300" viewBox="0 0 1200 300" xmlns="http://www.w3.org/2000/svg">
  <!-- Background gradient -->
  <defs>
    <linearGradient id="headerGradient" x1="0%" y1="0%" x2="100%" y2="100%">
      <stop offset="0%" style="stop-color:#FC6D26"/>
      <stop offset="100%" style="stop-color:#6B1D0F"/>
    </linearGradient>
    
    <!-- GitLab logo pattern -->
    <pattern id="gitlabPattern" x="0" y="0" width="100" height="100" patternUnits="userSpaceOnUse">
      <path d="M50 10L90 90H10L50 10" fill="#FC6D26" opacity="0.1"/>
    </pattern>
  </defs>

  <!-- Background -->
  <rect width="1200" height="300" fill="url(#headerGradient)"/>
  
  <!-- Pattern overlay -->
  <rect width="1200" height="300" fill="url(#gitlabPattern)"/>

  <!-- Main title -->
  <text x="60" y="150" font-family="Arial, sans-serif" font-size="48" font-weight="bold" fill="white">
    GitLab Docker Compose Setup
  </text>

  <!-- Geometric elements inspired by GitLab logo -->
  <g transform="translate(900,50) scale(0.5)">
    <path d="M50 0L100 100H0L50 0" fill="white" opacity="0.2"/>
    <path d="M25 50L50 100H0L25 50" fill="white" opacity="0.15"/>
    <path d="M75 50L100 100H50L75 50" fill="white" opacity="0.15"/>
  </g>

  <!-- Shield icon (Font Awesome) -->
  <g transform="translate(1100,240) scale(0.15)">
    <path d="M269.4 2.9C265.2 1 260.7 0 256 0s-9.2 1-13.4 2.9L54.3 82.8c-22 9.3-38.4 31-38.3 57.2c.5 99.2 41.3 280.7 213.6 363.2c16.7 8 36.1 8 52.8 0C454.7 420.7 495.5 239.2 496 140c.1-26.2-16.3-47.9-38.3-57.2L269.4 2.9zM160 154.4c0-5.8 4.7-10.4 10.4-10.4l.2 0c3.4 0 6.5 1.6 8.5 4.3l40 53.3c3 4 7.8 6.4 12.8 6.4l48 0c5 0 9.8-2.4 12.8-6.4l40-53.3c2-2.7 5.2-4.3 8.5-4.3l.2 0c5.8 0 10.4 4.7 10.4 10.4L352 272c0 53-43 96-96 96s-96-43-96-96l0-117.6zM216 288a16 16 0 1 0 0-32 16 16 0 1 0 0 32zm96-16a16 16 0 1 0 -32 0 16 16 0 1 0 32 0z" fill="white" opacity="0.8"/>
  </g>
</svg>
